<!DOCTYPE svg PUBLIC "-//W3C//DTD SVG 1.1//EN" "http://www.w3.org/Graphics/SVG/1.1/DTD/svg11.dtd">
<!-- Uploaded to: SVG Repo, www.svgrepo.com, Transformed by: SVG Repo Mixer Tools -->
<svg fill="#FFFFFF" width="130px" height="130px" viewBox="-16 -16 64.00 64.00" version="1.1" xmlns="http://www.w3.org/2000/svg" style="--darkreader-inline-fill: var(--darkreader-background-ffffff, #222425); --darkreader-inline-stroke: var(--darkreader-text-ffffff, #dedcd9);" stroke="#FFFFFF" data-darkreader-inline-fill="" data-darkreader-inline-stroke="">
<g id="SVGRepo_bgCarrier" stroke-width="0"/>
<g id="SVGRepo_tracerCarrier" stroke-linecap="round" stroke-linejoin="round" stroke="##FFFFFF" stroke-width="4.608" style="--darkreader-inline-stroke: var(--darkreader-text-cccccc, ##FFFFFFc1bcb6);"> <title>close</title> <path d="M8.48 16l5.84-5.84c0.32-0.32 0.32-0.84 0-1.2-0.32-0.32-0.84-0.32-1.2 0l-5.84 5.84-5.84-5.84c-0.32-0.32-0.84-0.32-1.2 0-0.32 0.32-0.32 0.84 0 1.2l5.84 5.84-5.84 5.84c-0.32 0.32-0.32 0.84 0 1.2 0.16 0.16 0.4 0.24 0.6 0.24s0.44-0.080 0.6-0.24l5.84-5.84 5.84 5.84c0.16 0.16 0.36 0.24 0.6 0.24 0.2 0 0.44-0.080 0.6-0.24 0.32-0.32 0.32-0.84 0-1.2l-5.84-5.84z"/> </g>
<g id="SVGRepo_iconCarrier"> <title>close</title> <path d="M8.48 16l5.84-5.84c0.32-0.32 0.32-0.84 0-1.2-0.32-0.32-0.84-0.32-1.2 0l-5.84 5.84-5.84-5.84c-0.32-0.32-0.84-0.32-1.2 0-0.32 0.32-0.32 0.84 0 1.2l5.84 5.84-5.84 5.84c-0.32 0.32-0.32 0.84 0 1.2 0.16 0.16 0.4 0.24 0.6 0.24s0.44-0.080 0.6-0.24l5.84-5.84 5.84 5.84c0.16 0.16 0.36 0.24 0.6 0.24 0.2 0 0.44-0.080 0.6-0.24 0.32-0.32 0.32-0.84 0-1.2l-5.84-5.84z"/> </g>
</svg>