<svg width="529" height="421" viewBox="0 0 529 421" fill="none" xmlns="http://www.w3.org/2000/svg">
<g clip-path="url(#clip0_2_56)">
<path d="M464.681 408.532L453.684 408.531L448.453 366.154L464.684 366.156L464.681 408.532Z" fill="#FFB6B6"/>
<path d="M465.068 419.993L431.25 419.992V419.564C431.251 412.302 437.144 406.415 444.413 406.415L450.591 401.733L462.117 406.415L465.069 406.416L465.068 419.993Z" fill="#2F2E41"/>
<path d="M415.927 408.532L404.93 408.531L399.698 366.154L415.929 366.156L415.927 408.532Z" fill="#FFB6B6"/>
<path d="M416.314 419.993L382.496 419.992V419.564C382.497 412.302 388.39 406.415 395.659 406.415L401.837 401.733L413.362 406.415L416.315 406.416L416.314 419.993Z" fill="#2F2E41"/>
<path d="M410.687 172.038L474.134 173.373C474.134 173.373 485.54 192.055 476.832 218.41L477.807 225.749L473.8 237.091L471.797 271.787L473.8 277.124L472.464 287.132C472.464 287.132 477.807 353.187 464.45 386.547L448.421 385.88L442.41 298.84L445.75 292.47L445.082 289.801L437.067 249.769L429.053 270.452V281.944L421.706 290.469C421.706 290.469 424.378 369.2 417.031 385.213H399.086L392.32 278.459L398.999 216.408L397.663 212.405L399.667 210.403L398.331 203.731L410.687 172.038Z" fill="#2F2E41"/>
<path d="M437.735 50.2718L457.103 45.6013L462.446 58.2783C462.446 58.2783 490.09 72.957 491.425 92.9734C491.425 92.9734 495.172 108.987 491.832 116.326C488.493 123.665 474.468 147.018 474.468 147.018C474.468 147.018 487.157 187.718 483.818 189.719C480.479 191.721 401.002 187.718 401.002 183.714C401.002 179.711 414.229 137.677 414.229 137.677L417.031 65.6177L435.064 58.9456L437.735 50.2718Z" fill="#3F3D56"/>
<path d="M489.37 214.516C485.316 212.475 483.685 207.538 485.728 203.489C485.934 203.081 486.176 202.705 486.436 202.348L475.659 128.529L490.579 129.006L498.384 200.931C501.213 203.328 502.151 207.423 500.408 210.878C498.366 214.928 493.424 216.557 489.37 214.516Z" fill="#FFB6B6"/>
<path d="M347.795 179.676C346.163 175.445 348.273 170.693 352.509 169.062C352.935 168.898 353.368 168.782 353.801 168.692L395.434 106.763L406.17 117.127L363.607 175.657C364.091 179.331 362.034 182.995 358.42 184.386C354.184 186.017 349.427 183.908 347.795 179.676Z" fill="#FFB6B6"/>
<path d="M462.181 109.91C457.966 95.4413 464.967 80.6794 480.051 80.7507C484.411 80.7713 487.798 82.0352 488.737 85.5336C492.023 97.7784 493.814 116.262 493.814 116.262L497.712 135.941L495.351 140.027L500.273 153.215L497.886 159.455L497.369 191.316L485.348 190.649L472.102 166.36L467.037 163.351C467.037 163.351 471.104 124.079 463.015 112.771L462.181 109.91Z" fill="#3F3D56"/>
<path d="M408.333 74.3018C415.363 60.9688 433.359 57.8106 444.159 68.3308C447.281 71.3716 448.838 74.6315 447.081 77.7994C440.929 88.8871 426.669 100.825 426.669 100.825L409.109 129.028L404.57 130.328L398.939 143.23L386.872 157.404L370.889 165.824L361.539 156.483L363.525 144.475L387.586 112.447C387.586 112.447 404.899 90.6857 406.944 76.9381L408.333 74.3018Z" fill="#3F3D56"/>
<path d="M441.415 46.3722C441.858 46.4253 442.299 46.4652 442.737 46.4852C444.102 46.5599 445.451 46.4822 446.751 46.2621C450.699 45.6298 454.287 43.7613 457.055 41.0213C459.981 38.13 461.984 34.271 462.525 29.8778C463.794 19.5078 456.402 10.0616 446.022 8.79448C435.791 7.53822 426.465 14.6871 424.976 24.819C424.952 24.9759 424.928 25.1261 424.911 25.2822C423.644 35.6588 431.028 45.0992 441.415 46.3722Z" fill="#FFB6B6"/>
<path d="M420.708 24.1249C423.396 25.4533 427.79 21.277 429.473 23.6798C429.746 23.1606 430.048 22.6584 430.346 22.1835C430.616 21.7585 431.002 20.8514 431.449 20.696C430.883 22.0586 431.008 23.904 431.595 25.4851C434.247 26.4752 437.719 24.2836 440.174 21.6913C444.029 17.6266 450.323 28.0497 448.835 33.4439C450.729 31.1333 454.839 32.4365 456.232 35.0784C457.624 37.7138 455.272 39.8253 454.769 42.7649L458.566 42.2832C460.961 39.9522 460.794 36.0244 462.767 33.3228C466.062 28.8015 467.338 24.1884 464.861 19.5222C462.664 15.3964 462.459 10.0567 458.427 7.67801C460.189 6.81773 453.925 8.1617 455.598 5.35813C457.279 2.56044 448.322 2.22087 447.738 3.71971C445.178 0.659503 442.596 -1.35816 439.448 1.09395C436.356 3.50643 436.676 6.04222 433.044 5.81497C431.34 5.70949 431.527 8.88364 430.514 10.2675C429.507 11.644 425.592 12.5276 425.401 12.3803C424.367 11.5721 420.849 18.4526 420.849 18.4526C420.849 18.4526 417.997 22.7787 420.708 24.1249Z" fill="#2F2E41"/>
<path d="M183.719 144.217C247.343 144.217 298.92 195.743 298.92 259.305C298.92 322.867 247.343 374.393 183.719 374.393C120.095 374.393 32.0413 311.374 68.517 259.305C104.993 207.236 120.095 144.217 183.719 144.217Z" fill="#F2F2F2"/>
<path d="M337.907 149.691C336.874 149.691 336.034 150.531 336.034 151.563V211.446C336.034 212.478 336.874 213.318 337.907 213.318C338.941 213.318 339.781 212.478 339.781 211.446V151.563C339.781 150.531 338.941 149.691 337.907 149.691Z" fill="#3F3D56"/>
<path d="M23.2106 104.779C22.1775 104.779 21.3374 105.618 21.3374 106.65V121.621C21.3374 122.653 22.1775 123.492 23.2106 123.492C24.2437 123.492 25.0838 122.653 25.0838 121.621V106.65C25.0838 105.618 24.2437 104.779 23.2106 104.779Z" fill="#3F3D56"/>
<path d="M23.2106 149.691C22.1775 149.691 21.3374 150.531 21.3374 151.563V180.569C21.3374 181.601 22.1775 182.44 23.2106 182.44C24.2437 182.44 25.0838 181.601 25.0838 180.569V151.563C25.0838 150.531 24.2437 149.691 23.2106 149.691Z" fill="#3F3D56"/>
<path d="M23.2106 190.861C22.1775 190.861 21.3374 191.701 21.3374 192.733V221.739C21.3374 222.771 22.1775 223.61 23.2106 223.61C24.2437 223.61 25.0838 222.771 25.0838 221.739V192.733C25.0838 191.701 24.2437 190.861 23.2106 190.861Z" fill="#3F3D56"/>
<path d="M191.211 45.8311C190.178 45.8311 189.338 46.6704 189.338 47.7025V76.7085C189.338 77.7406 190.178 78.5799 191.211 78.5799C192.244 78.5799 193.085 77.7406 193.085 76.7085V47.7025C193.085 46.6704 192.244 45.8311 191.211 45.8311Z" fill="#3F3D56"/>
<path d="M478.181 404.782C480.116 404.903 481.185 402.501 479.722 401.102L479.576 400.523C479.595 400.477 479.614 400.431 479.634 400.384C481.591 395.723 488.222 395.755 490.162 400.423C491.884 404.567 494.077 408.717 494.617 413.098C494.859 415.032 494.75 417.002 494.32 418.9C498.355 410.094 500.479 400.479 500.479 390.81C500.479 388.38 500.345 385.951 500.073 383.528C499.849 381.545 499.541 379.575 499.142 377.623C496.982 367.071 492.306 357.021 485.561 348.627C482.318 346.856 479.614 344.088 477.981 340.77C477.394 339.574 476.934 338.286 476.717 336.975C477.086 337.023 478.108 331.409 477.83 331.065C478.344 330.285 479.264 329.897 479.826 329.137C482.619 325.353 486.468 326.014 488.477 331.155C492.768 333.319 492.81 336.908 490.177 340.359C488.501 342.555 488.271 345.527 486.801 347.877C486.952 348.071 487.11 348.258 487.261 348.452C490.034 352.005 492.433 355.825 494.455 359.837C493.883 355.378 494.727 350.005 496.165 346.542C497.803 342.596 500.872 339.272 503.574 335.861C506.821 331.763 513.477 333.552 514.049 338.746C514.055 338.796 514.06 338.847 514.066 338.897C513.664 339.123 513.271 339.363 512.887 339.617C510.696 341.065 511.453 344.458 514.049 344.859L514.108 344.868C513.963 346.312 513.715 347.744 513.352 349.153C516.819 362.548 509.334 367.426 498.646 367.645C498.41 367.766 498.18 367.887 497.944 368.002C499.027 371.048 499.892 374.172 500.533 377.339C501.108 380.137 501.507 382.965 501.731 385.806C502.009 389.39 501.985 392.992 501.682 396.569L501.701 396.442C502.469 392.502 504.61 388.822 507.72 386.271C512.352 382.47 518.896 381.07 523.893 378.015C526.299 376.544 529.381 378.444 528.961 381.231L528.941 381.364C528.197 381.666 527.471 382.017 526.769 382.41C526.368 382.636 525.975 382.876 525.59 383.13C523.399 384.578 524.156 387.971 526.753 388.371L526.812 388.38C526.854 388.386 526.89 388.393 526.932 388.399C525.656 391.426 523.878 394.237 521.651 396.66C519.484 408.353 510.172 409.463 500.212 406.057H500.206C499.118 410.796 497.527 415.425 495.482 419.836H478.604C478.544 419.649 478.489 419.456 478.435 419.268C479.996 419.365 481.568 419.274 483.105 418.99C481.853 417.455 480.6 415.908 479.348 414.373C479.318 414.343 479.294 414.313 479.27 414.283C478.634 413.497 477.993 412.717 477.358 411.932L477.358 411.931C477.318 409.519 477.608 407.115 478.181 404.782Z" fill="#F2F2F2"/>
<path d="M0 419.887C0 420.504 0.496425 421 1.11461 421H527.754C528.372 421 528.869 420.504 528.869 419.887C528.869 419.269 528.372 418.773 527.754 418.773H1.11461C0.496425 418.773 0 419.269 0 419.887Z" fill="#CCCCCC"/>
<path d="M133.349 251.547H68.517V249.676H133.349C138.981 249.676 143.563 245.098 143.563 239.471V195.679H145.436V239.471C145.436 246.13 140.014 251.547 133.349 251.547Z" fill="#680000"/>
<path d="M257.054 346.477H109.6V348.348H257.054V346.477Z" fill="#680000"/>
<path d="M350.609 239.034H271.849C267.598 239.034 264.14 235.58 264.14 231.333V153.61C264.14 149.364 267.598 145.91 271.849 145.91H350.609C354.859 145.91 358.317 149.364 358.317 153.61V231.333C358.317 235.58 354.859 239.034 350.609 239.034Z" fill="#E6E6E6"/>
<path d="M286.516 148.204C275.427 148.204 266.437 157.185 266.437 168.264V229.684C266.437 233.581 269.599 236.74 273.499 236.74H321.659C340.636 236.74 356.02 221.371 356.02 202.412V155.259C356.02 151.363 352.858 148.204 348.958 148.204L286.516 148.204Z" fill="white"/>
<path d="M332.323 170.791H289.969C289.161 170.791 288.504 170.134 288.504 169.327C288.504 168.52 289.161 167.863 289.969 167.863H332.323C333.131 167.863 333.788 168.52 333.788 169.327C333.788 170.134 333.131 170.791 332.323 170.791Z" fill="#E6E6E6"/>
<path d="M332.323 202.009H289.969C289.161 202.009 288.504 201.352 288.504 200.544C288.504 199.737 289.161 199.081 289.969 199.081H332.323C333.131 199.081 333.788 199.737 333.788 200.544C333.788 201.352 333.131 202.009 332.323 202.009Z" fill="#E6E6E6"/>
<path d="M349.522 186.41H272.77C271.962 186.41 271.305 185.753 271.305 184.946C271.305 184.139 271.962 183.482 272.77 183.482H349.522C350.33 183.482 350.987 184.139 350.987 184.946C350.987 185.753 350.33 186.41 349.522 186.41Z" fill="#E6E6E6"/>
<path d="M350.305 214.702H322.579C321.771 214.702 321.113 214.045 321.113 213.238C321.113 212.43 321.771 211.774 322.579 211.774H350.305C351.113 211.774 351.771 212.43 351.771 213.238C351.771 214.045 351.113 214.702 350.305 214.702Z" fill="#E6E6E6"/>
<path d="M185.176 393.893H122.635C119.26 393.893 116.514 391.15 116.514 387.778V326.061C116.514 322.689 119.26 319.946 122.635 319.946H185.176C188.551 319.946 191.297 322.689 191.297 326.061V387.778C191.297 391.15 188.551 393.893 185.176 393.893Z" fill="#E6E6E6"/>
<path d="M134.282 321.768C125.476 321.768 118.338 328.899 118.338 337.696V386.469C118.338 389.563 120.849 392.071 123.946 392.071H162.188C177.257 392.071 189.473 379.867 189.473 364.813V327.37C189.473 324.276 186.962 321.768 183.865 321.768L134.282 321.768Z" fill="white"/>
<path d="M170.656 339.703H137.024C136.383 339.703 135.86 339.182 135.86 338.541C135.86 337.9 136.383 337.378 137.024 337.378H170.656C171.297 337.378 171.819 337.9 171.819 338.541C171.819 339.182 171.297 339.703 170.656 339.703Z" fill="#E6E6E6"/>
<path d="M170.656 364.492H137.024C136.383 364.492 135.86 363.971 135.86 363.33C135.86 362.689 136.383 362.167 137.024 362.167H170.656C171.297 362.167 171.819 362.689 171.819 363.33C171.819 363.971 171.297 364.492 170.656 364.492Z" fill="#E6E6E6"/>
<path d="M184.313 352.106H123.367C122.725 352.106 122.203 351.584 122.203 350.943C122.203 350.302 122.725 349.781 123.367 349.781H184.313C184.954 349.781 185.476 350.302 185.476 350.943C185.476 351.584 184.954 352.106 184.313 352.106Z" fill="#E6E6E6"/>
<path d="M184.935 374.571H162.918C162.277 374.571 161.755 374.05 161.755 373.409C161.755 372.768 162.277 372.246 162.918 372.246H184.935C185.577 372.246 186.099 372.768 186.099 373.409C186.099 374.05 185.577 374.571 184.935 374.571Z" fill="#E6E6E6"/>
<path d="M141.464 195.207H95.212C92.716 195.207 90.6854 193.178 90.6854 190.684V145.042C90.6854 142.548 92.716 140.52 95.212 140.52H141.464C143.96 140.52 145.99 142.548 145.99 145.042V190.684C145.99 193.178 143.96 195.207 141.464 195.207Z" fill="#E6E6E6"/>
<path d="M103.826 141.867C97.3133 141.867 92.0341 147.141 92.0341 153.647V189.716C92.0341 192.004 93.8909 193.859 96.1813 193.859H124.463C135.607 193.859 144.642 184.834 144.642 173.7V146.01C144.642 143.722 142.785 141.867 140.494 141.867L103.826 141.867Z" fill="white"/>
<path d="M130.725 155.131H105.853C105.379 155.131 104.993 154.745 104.993 154.271C104.993 153.797 105.379 153.412 105.853 153.412H130.725C131.2 153.412 131.586 153.797 131.586 154.271C131.586 154.745 131.2 155.131 130.725 155.131Z" fill="#E6E6E6"/>
<path d="M130.725 173.463H105.853C105.379 173.463 104.993 173.078 104.993 172.604C104.993 172.13 105.379 171.744 105.853 171.744H130.725C131.2 171.744 131.586 172.13 131.586 172.604C131.586 173.078 131.2 173.463 130.725 173.463Z" fill="#E6E6E6"/>
<path d="M140.825 164.303H95.7534C95.2789 164.303 94.8928 163.917 94.8928 163.443C94.8928 162.969 95.2789 162.584 95.7534 162.584H140.825C141.3 162.584 141.686 162.969 141.686 163.443C141.686 163.917 141.3 164.303 140.825 164.303Z" fill="#E6E6E6"/>
<path d="M141.286 180.917H125.003C124.529 180.917 124.143 180.532 124.143 180.058C124.143 179.584 124.529 179.198 125.003 179.198H141.286C141.76 179.198 142.146 179.584 142.146 180.058C142.146 180.532 141.76 180.917 141.286 180.917Z" fill="#E6E6E6"/>
<path d="M276.442 252.755C281.614 252.755 285.808 248.566 285.808 243.398C285.808 238.231 281.614 234.042 276.442 234.042C271.269 234.042 267.076 238.231 267.076 243.398C267.076 248.566 271.269 252.755 276.442 252.755Z" fill="#680000"/>
<path d="M144.381 205.036C149.554 205.036 153.747 200.846 153.747 195.679C153.747 190.511 149.554 186.322 144.381 186.322C139.209 186.322 135.015 190.511 135.015 195.679C135.015 200.846 139.209 205.036 144.381 205.036Z" fill="#680000"/>
<path d="M189.338 333.224C194.511 333.224 198.704 329.034 198.704 323.867C198.704 318.699 194.511 314.51 189.338 314.51C184.165 314.51 179.972 318.699 179.972 323.867C179.972 329.034 184.165 333.224 189.338 333.224Z" fill="#680000"/>
<path d="M209.57 73.7809C216.017 73.7809 221.243 68.6698 221.243 62.365C221.243 56.0601 216.017 50.9491 209.57 50.9491C203.123 50.9491 197.897 56.0601 197.897 62.365C197.897 68.6698 203.123 73.7809 209.57 73.7809Z" fill="#F2F2F2"/>
<path d="M303.148 58.4595H240.316C238.161 58.4595 236.407 56.7075 236.407 54.5541C236.407 52.4007 238.161 50.6486 240.316 50.6486H303.148C305.303 50.6486 307.057 52.4007 307.057 54.5541C307.057 56.7075 305.303 58.4595 303.148 58.4595Z" fill="#F2F2F2"/>
<path d="M352.182 71.678H240.316C238.161 71.678 236.407 69.9259 236.407 67.7725C236.407 65.6191 238.161 63.8671 240.316 63.8671H352.182C354.337 63.8671 356.091 65.6191 356.091 67.7725C356.091 69.9259 354.337 71.678 352.182 71.678Z" fill="#F2F2F2"/>
<path d="M40.61 121.76C44.7824 121.76 48.1647 118.452 48.1647 114.372C48.1647 110.292 44.7824 106.984 40.61 106.984C36.4377 106.984 33.0554 110.292 33.0554 114.372C33.0554 118.452 36.4377 121.76 40.61 121.76Z" fill="#F2F2F2"/>
<path d="M101.172 111.844H60.5088C59.1137 111.844 57.9787 110.711 57.9787 109.317C57.9787 107.923 59.1137 106.789 60.5088 106.789H101.172C102.567 106.789 103.702 107.923 103.702 109.317C103.702 110.711 102.567 111.844 101.172 111.844Z" fill="#F2F2F2"/>
<path d="M132.907 120.399H60.5088C59.1137 120.399 57.9787 119.265 57.9787 117.872C57.9787 116.478 59.1137 115.344 60.5088 115.344H132.907C134.302 115.344 135.437 116.478 135.437 117.872C135.437 119.265 134.302 120.399 132.907 120.399Z" fill="#F2F2F2"/>
<path d="M267.267 384.686C271.439 384.686 274.821 381.378 274.821 377.298C274.821 373.217 271.439 369.91 267.267 369.91C263.094 369.91 259.712 373.217 259.712 377.298C259.712 381.378 263.094 384.686 267.267 384.686Z" fill="#F2F2F2"/>
<path d="M327.829 374.77H287.165C285.77 374.77 284.635 373.636 284.635 372.243C284.635 370.849 285.77 369.715 287.165 369.715H327.829C329.224 369.715 330.359 370.849 330.359 372.243C330.359 373.636 329.224 374.77 327.829 374.77Z" fill="#F2F2F2"/>
<path d="M359.563 383.325H287.165C285.77 383.325 284.635 382.191 284.635 380.797C284.635 379.404 285.77 378.27 287.165 378.27H359.563C360.958 378.27 362.093 379.404 362.093 380.797C362.093 382.191 360.958 383.325 359.563 383.325Z" fill="#F2F2F2"/>
<path d="M176.46 145.938H174.587V234.828H176.46V145.938Z" fill="#E6E6E6"/>
<path d="M175.523 240.442C178.627 240.442 181.143 237.928 181.143 234.828C181.143 231.727 178.627 229.214 175.523 229.214C172.42 229.214 169.904 231.727 169.904 234.828C169.904 237.928 172.42 240.442 175.523 240.442Z" fill="#E6E6E6"/>
<path d="M260.754 305.004C263.857 305.004 266.373 302.49 266.373 299.389C266.373 296.289 263.857 293.775 260.754 293.775C257.65 293.775 255.134 296.289 255.134 299.389C255.134 302.49 257.65 305.004 260.754 305.004Z" fill="#E6E6E6"/>
<path d="M109.025 228.278C112.128 228.278 114.644 225.764 114.644 222.664C114.644 219.563 112.128 217.05 109.025 217.05C105.921 217.05 103.405 219.563 103.405 222.664C103.405 225.764 105.921 228.278 109.025 228.278Z" fill="#E6E6E6"/>
<path d="M106.948 222.672L76.2155 223.602L76.2722 225.473L107.005 224.544L106.948 222.672Z" fill="#E6E6E6"/>
<path d="M306.47 320.882H259.869V299.389H261.742V319.01H306.47V320.882Z" fill="#E6E6E6"/>
<path d="M106.718 289.579C109.822 289.579 112.338 287.065 112.338 283.965C112.338 280.864 109.822 278.351 106.718 278.351C103.615 278.351 101.099 280.864 101.099 283.965C101.099 287.065 103.615 289.579 106.718 289.579Z" fill="#E6E6E6"/>
<path d="M151.88 305.457H105.278V283.965H107.152V303.586H151.88V305.457Z" fill="#E6E6E6"/>
<path d="M294.471 262.603H70.6407V264.474H294.471V262.603Z" fill="#E6E6E6"/>
</g>
<defs>
<clipPath id="clip0_2_56">
<rect width="529" height="421" fill="white"/>
</clipPath>
</defs>
</svg>
